<svg width="227" height="121" viewBox="0 0 227 121" fill="none" xmlns="http://www.w3.org/2000/svg">
<g clip-path="url(#clip0_181_23)">
<rect width="227" height="121" fill="#1C1E52"/>
<g opacity="0.1">
<path fill-rule="evenodd" clip-rule="evenodd" d="M109.468 112.733C111.602 117.216 111.57 122.111 111.849 127.068C112.133 132.095 113.554 137.383 111.106 141.785C108.584 146.323 103.378 148.279 98.7491 150.634C93.488 153.309 88.3243 156.932 82.4511 156.356C76.0769 155.732 68.9471 153.093 65.9808 147.421C63.0525 141.822 66.8212 135.231 68.1732 129.058C69.1493 124.6 70.6609 120.569 72.7501 116.511C75.1301 111.889 76.8902 106.797 81.1621 103.83C86.1959 100.334 92.5131 96.8874 98.3579 98.7258C104.188 100.56 106.842 107.218 109.468 112.733Z" stroke="#BFC0F0" stroke-width="1.5"/>
<path fill-rule="evenodd" clip-rule="evenodd" d="M105.378 113.107C106.884 116.27 106.861 119.722 107.058 123.219C107.258 126.765 108.26 130.494 106.534 133.6C104.755 136.8 101.083 138.18 97.8177 139.841C94.1067 141.728 90.4644 144.284 86.3217 143.878C81.8255 143.437 76.7964 141.575 74.7041 137.575C72.6386 133.626 75.2969 128.977 76.2505 124.622C76.939 121.478 78.0053 118.634 79.4789 115.772C81.1577 112.512 82.3992 108.92 85.4125 106.827C88.9631 104.361 93.419 101.93 97.5418 103.227C101.654 104.521 103.526 109.217 105.378 113.107Z" stroke="#BFC0F0" stroke-width="1.5"/>
<path fill-rule="evenodd" clip-rule="evenodd" d="M99.4921 117.802C100.402 119.713 100.388 121.799 100.507 123.912C100.628 126.054 101.234 128.308 100.19 130.185C99.1153 132.119 96.8967 132.953 94.9236 133.956C92.6812 135.096 90.4802 136.641 87.9769 136.395C85.2601 136.129 82.2212 135.004 80.9569 132.587C79.7088 130.2 81.3151 127.391 81.8913 124.76C82.3074 122.86 82.9517 121.142 83.8421 119.412C84.8565 117.442 85.6068 115.272 87.4275 114.007C89.5731 112.517 92.2656 111.048 94.7568 111.832C97.2418 112.613 98.3731 115.451 99.4921 117.802Z" stroke="#BFC0F0" stroke-width="1.5"/>
<path fill-rule="evenodd" clip-rule="evenodd" d="M36.8455 14.8686C46.7199 15.0726 51.0256 27.8082 59.0756 33.5272C66.6001 38.8729 76.7948 39.9951 82.4637 47.2773C88.8114 55.4315 94.5852 66.0027 92.178 76.0501C89.7752 86.0787 77.5228 89.6905 70.4933 97.2388C63.8002 104.426 60.7092 114.983 51.8909 119.311C42.4876 123.925 31.2129 124.433 21.1745 121.44C11.1561 118.453 3.8914 110.451 -3.29171 102.859C-10.7738 94.9509 -19.5263 87.1909 -21.3782 76.4656C-23.2463 65.6467 -20.1363 53.7842 -13.2409 45.2378C-6.82345 37.2838 5.27589 37.8959 14.0167 32.5961C22.4259 27.4973 27.0118 14.6654 36.8455 14.8686Z" stroke="#BFC0F0" stroke-width="1.5"/>
<path fill-rule="evenodd" clip-rule="evenodd" d="M36.4908 27.3449C44.0998 27.502 47.4178 37.3078 53.621 41.7111C59.4193 45.827 67.2751 46.691 71.6435 52.2979C76.535 58.5762 80.9843 66.7155 79.1292 74.4515C77.2777 82.1729 67.8362 84.9538 62.4193 90.7656C57.2617 96.2993 54.8798 104.428 48.0845 107.76C40.8384 111.312 32.1504 111.704 24.4149 109.399C16.6948 107.1 11.0967 100.938 5.56153 95.0928C-0.204102 89.004 -6.94863 83.0292 -8.37568 74.7714C-9.81518 66.4414 -7.41872 57.3079 -2.10521 50.7276C2.84002 44.6035 12.1636 45.0748 18.8991 40.9942C25.3792 37.0684 28.9131 27.1885 36.4908 27.3449Z" stroke="#BFC0F0" stroke-width="1.5"/>
<path fill-rule="evenodd" clip-rule="evenodd" d="M36.1675 39.5014C41.5711 39.6127 43.9273 46.5631 48.3325 49.6843C52.4501 52.6016 58.0289 53.2141 61.1311 57.1883C64.6047 61.6385 67.7644 67.4077 66.447 72.8911C65.1322 78.3641 58.4273 80.3352 54.5805 84.4547C50.9179 88.3771 49.2264 94.1387 44.4008 96.5003C39.255 99.0186 33.0852 99.2959 27.5919 97.6626C22.1095 96.0325 18.1341 91.6651 14.2033 87.5219C10.1089 83.2061 5.31926 78.9711 4.30585 73.1178C3.28359 67.2134 4.98543 60.7395 8.75879 56.0753C12.2706 51.7344 18.8917 52.0685 23.6749 49.1761C28.2767 46.3934 30.7863 39.3905 36.1675 39.5014Z" stroke="#BFC0F0" stroke-width="1.5"/>
<path fill-rule="evenodd" clip-rule="evenodd" d="M35.8443 51.6578C39.0147 51.7234 40.3972 55.8185 42.9819 57.6574C45.3978 59.3763 48.6711 59.7372 50.4913 62.0788C52.5294 64.7007 54.3832 68.0999 53.6103 71.3306C52.8388 74.5553 48.9049 75.7166 46.6478 78.1438C44.4988 80.4548 43.5064 83.8495 40.675 85.2409C37.6558 86.7247 34.0358 86.8881 30.8127 85.9257C27.596 84.9653 25.2635 82.3921 22.9571 79.9509C20.5548 77.4081 17.7445 74.9129 17.1499 71.4642C16.5502 67.9854 17.5487 64.171 19.7626 61.423C21.8232 58.8654 25.708 59.0622 28.5144 57.358C31.2145 55.7185 32.6869 51.5924 35.8443 51.6578Z" stroke="#BFC0F0" stroke-width="1.5"/>
<path fill-rule="evenodd" clip-rule="evenodd" d="M171.53 -31.3736C178.121 -34.3682 185.834 -36.0901 192.68 -33.7301C199.298 -31.4486 202.257 -24.1057 207.147 -19.0958C211.88 -14.2474 218.309 -10.9875 220.964 -4.7548C223.863 2.048 225.071 9.99434 222.494 16.9226C219.927 23.823 213.691 28.75 207.205 32.2343C201.321 35.3958 194.52 35.8927 187.848 35.5365C181.849 35.2162 176.577 32.4902 170.982 30.3004C164.607 27.8056 156.69 27.3942 152.745 21.7987C148.757 16.1404 150.062 8.44538 150.72 1.55593C151.357 -5.11593 152.898 -11.6167 156.478 -17.2813C160.226 -23.2117 165.143 -28.4714 171.53 -31.3736Z" stroke="#BFC0F0" stroke-width="1.5"/>
<path fill-rule="evenodd" clip-rule="evenodd" d="M174.323 -23.9736C179.472 -26.3132 185.498 -27.6586 190.847 -25.8147C196.018 -24.0322 198.329 -18.2954 202.15 -14.3812C205.847 -10.5934 210.87 -8.04644 212.945 -3.17699C215.209 2.13787 216.153 8.34616 214.14 13.759C212.134 19.1501 207.262 22.9995 202.195 25.7217C197.597 28.1917 192.284 28.5799 187.071 28.3016C182.385 28.0514 178.266 25.9216 173.895 24.2108C168.914 22.2616 162.728 21.9402 159.647 17.5686C156.531 13.1479 157.55 7.13598 158.064 1.75343C158.562 -3.45914 159.766 -8.538 162.563 -12.9637C165.491 -17.597 169.333 -21.7062 174.323 -23.9736Z" stroke="#BFC0F0" stroke-width="1.5"/>
<path fill-rule="evenodd" clip-rule="evenodd" d="M177.25 -16.2171C180.889 -17.8702 185.146 -18.8207 188.925 -17.518C192.579 -16.2586 194.212 -12.2052 196.911 -9.43962C199.524 -6.76327 203.073 -4.96374 204.539 -1.52322C206.139 2.23201 206.806 6.61849 205.383 10.443C203.966 14.2521 200.523 16.9719 196.943 18.8952C193.695 20.6405 189.941 20.9147 186.258 20.7181C182.946 20.5413 180.036 19.0365 176.948 17.8277C173.429 16.4505 169.058 16.2234 166.881 13.1346C164.679 10.0112 165.399 5.76344 165.763 1.96038C166.114 -1.72258 166.965 -5.31106 168.941 -8.43802C171.01 -11.7117 173.725 -14.6151 177.25 -16.2171Z" stroke="#BFC0F0" stroke-width="1.5"/>
<path fill-rule="evenodd" clip-rule="evenodd" d="M179.858 -9.30379C182.15 -10.3449 184.831 -10.9436 187.211 -10.1231C189.512 -9.32987 190.541 -6.77694 192.241 -5.03511C193.887 -3.34947 196.122 -2.21608 197.045 -0.0491392C198.053 2.31601 198.473 5.07875 197.577 7.48751C196.685 9.88659 194.516 11.5996 192.262 12.811C190.216 13.9102 187.851 14.0829 185.531 13.9591C183.446 13.8477 181.613 12.8999 179.668 12.1386C177.451 11.2712 174.699 11.1282 173.327 9.1828C171.941 7.21558 172.394 4.54021 172.623 2.14493C172.845 -0.174697 173.38 -2.43483 174.625 -4.40427C175.928 -6.46613 177.638 -8.29479 179.858 -9.30379Z" stroke="#BFC0F0" stroke-width="1.5"/>
<path fill-rule="evenodd" clip-rule="evenodd" d="M160.077 40.7928C168.396 40.6366 176.524 41.8643 184.124 45.2492C192.71 49.0732 201.144 53.7342 206.489 61.4629C212.392 70.0004 219.84 81.1869 215.489 90.6093C210.821 100.716 193.675 97.0162 186.24 105.304C179.028 113.345 184.112 128.644 175.51 135.176C166.952 141.675 154.155 140.89 143.996 137.385C134.005 133.938 126.36 125.564 121.098 116.404C116.371 108.176 117.915 98.282 116.174 88.9555C114.336 79.11 106.264 69.0938 110.578 60.0537C114.901 50.9952 127.246 49.7825 136.604 46.1415C144.237 43.1713 151.887 40.9466 160.077 40.7928Z" stroke="#BFC0F0" stroke-width="1.5"/>
<path fill-rule="evenodd" clip-rule="evenodd" d="M160.673 51.3474C167.227 51.2243 173.63 52.1916 179.618 54.8588C186.382 57.8718 193.027 61.5445 197.237 67.6343C201.888 74.3613 207.756 83.1757 204.328 90.6C200.65 98.5636 187.142 95.6483 181.284 102.179C175.602 108.514 179.608 120.569 172.831 125.716C166.089 130.837 156.007 130.218 148.003 127.456C140.132 124.741 134.11 118.142 129.964 110.925C126.24 104.442 127.456 96.6457 126.084 89.2969C124.636 81.5392 118.277 73.647 121.676 66.5239C125.081 59.3863 134.807 58.4308 142.179 55.5618C148.193 53.2215 154.22 51.4686 160.673 51.3474Z" stroke="#BFC0F0" stroke-width="1.5"/>
<path fill-rule="evenodd" clip-rule="evenodd" d="M161.402 63.5012C165.924 63.4163 170.342 64.083 174.474 65.9211C179.141 67.9975 183.726 70.5286 186.631 74.7254C189.84 79.3615 193.889 85.436 191.523 90.5525C188.986 96.0407 179.665 94.0316 175.624 98.5323C171.703 102.898 174.467 111.206 169.791 114.753C165.139 118.282 158.183 117.856 152.66 115.953C147.23 114.081 143.074 109.534 140.213 104.559C137.644 100.092 138.483 94.719 137.537 89.6545C136.538 84.3082 132.15 78.8692 134.495 73.9602C136.845 69.0413 143.556 68.3827 148.642 66.4056C152.791 64.7927 156.95 63.5847 161.402 63.5012Z" stroke="#BFC0F0" stroke-width="1.5"/>
<path fill-rule="evenodd" clip-rule="evenodd" d="M162.024 73.8958C164.811 73.8437 167.535 74.2532 170.082 75.3823C172.959 76.6577 175.785 78.2124 177.576 80.7903C179.554 83.6379 182.05 87.3692 180.591 90.512C179.027 93.8831 173.282 92.649 170.791 95.4135C168.374 98.0952 170.078 103.198 167.195 105.377C164.327 107.545 160.039 107.283 156.635 106.114C153.287 104.964 150.726 102.171 148.962 99.1156C147.378 96.3713 147.896 93.0712 147.312 89.9604C146.696 86.6764 143.992 83.3355 145.437 80.3203C146.885 77.2988 151.022 76.8943 154.158 75.6799C156.716 74.6892 159.279 73.9471 162.024 73.8958Z" stroke="#BFC0F0" stroke-width="1.5"/>
<path fill-rule="evenodd" clip-rule="evenodd" d="M-21.1504 -60.8857C-12.9168 -60.3031 -4.87964 -61.5522 3.05792 -59.2893C13.4395 -56.3297 26.0618 -54.9532 31.7744 -45.7979C37.4829 -36.6492 35.6455 -23.9569 31.2474 -14.1117C27.2324 -5.12413 15.9305 -2.54422 9.2297 4.66877C2.86606 11.5188 2.26991 24.998 -6.88062 26.9304C-16.2286 28.9044 -22.4494 16.5876 -31.4007 13.2489C-39.3991 10.2656 -49.1775 13.6416 -56.0565 8.58841C-63.4244 3.17604 -70.7866 -5.66009 -69.449 -14.7008C-68.05 -24.1565 -53.597 -25.9428 -49.6588 -34.6534C-45.6925 -43.4262 -54.7531 -56.3584 -47.6668 -62.8789C-41.0111 -69.0033 -30.1748 -61.5243 -21.1504 -60.8857Z" stroke="#BFC0F0" stroke-width="1.5"/>
<path fill-rule="evenodd" clip-rule="evenodd" d="M-20.1408 -50.6052C-13.9386 -50.1655 -7.88434 -51.1082 -1.90512 -49.4005C5.91514 -47.167 15.4233 -46.1282 19.7265 -39.2192C24.0266 -32.3151 22.6425 -22.7368 19.3295 -15.3072C16.3051 -8.52471 7.79159 -6.57778 2.74397 -1.13449C-2.04965 4.03487 -2.49871 14.207 -9.39164 15.6652C-16.4333 17.1549 -21.1193 7.86005 -27.8621 5.34049C-33.8872 3.08915 -41.2531 5.63687 -46.4349 1.82347C-51.985 -2.26098 -57.5308 -8.92917 -56.5232 -15.7517C-55.4694 -22.8875 -44.5822 -24.2355 -41.6157 -30.809C-38.6279 -37.4294 -45.4531 -47.1887 -40.1151 -52.1094C-35.1015 -56.7311 -26.9387 -51.0871 -20.1408 -50.6052Z" stroke="#BFC0F0" stroke-width="1.5"/>
<path fill-rule="evenodd" clip-rule="evenodd" d="M-18.9749 -38.4445C-15.1581 -38.1742 -11.4324 -38.7536 -7.75291 -37.704C-2.94044 -36.3311 2.91071 -35.6926 5.55885 -31.4457C8.20506 -27.202 7.3533 -21.3144 5.31453 -16.7475C3.45336 -12.5785 -1.7857 -11.3818 -4.89193 -8.03588C-7.84185 -4.85838 -8.1182 1.3942 -12.36 2.29056C-16.6933 3.20625 -19.577 -2.50712 -23.7265 -4.05584C-27.4342 -5.43969 -31.967 -3.87367 -35.1558 -6.21768C-38.5713 -8.72831 -41.9841 -12.8271 -41.3641 -17.0208C-40.7155 -21.407 -34.0157 -22.2356 -32.1902 -26.2762C-30.3515 -30.3456 -34.5517 -36.3444 -31.2668 -39.3691C-28.1814 -42.21 -23.1582 -38.7407 -18.9749 -38.4445Z" stroke="#BFC0F0" stroke-width="1.5"/>
<path fill-rule="evenodd" clip-rule="evenodd" d="M96.6168 -61.4331C107.516 -61.2318 110.851 -45.7222 117.004 -36.7282C120.92 -31.003 122.128 -24.1849 126.023 -18.4453C131.054 -11.0316 143.357 -7.30394 143.047 1.64884C142.748 10.3019 130.482 12.8497 124.716 19.3116C119.067 25.6431 117.767 36.86 109.592 39.1428C101.402 41.4298 94.1589 33.3233 86.3174 30.034C79.4908 27.1705 72.1112 25.8839 66.4937 21.0642C60.2783 15.7314 56.0625 8.78203 52.7966 1.27372C48.5971 -8.38133 39.5113 -19.5789 44.8743 -28.6402C50.4365 -38.0379 66.5136 -31.6432 75.7398 -37.4906C84.8699 -43.277 85.8076 -61.6328 96.6168 -61.4331Z" stroke="#BFC0F0" stroke-width="1.5"/>
<path fill-rule="evenodd" clip-rule="evenodd" d="M95.5373 -45.4377C102.981 -45.3002 105.259 -34.711 109.461 -28.5704C112.136 -24.6615 112.961 -20.0065 115.622 -16.0877C119.058 -11.026 127.461 -8.48099 127.249 -2.36849C127.044 3.5394 118.667 5.27888 114.729 9.69077C110.87 14.0136 109.983 21.6719 104.399 23.2305C98.8054 24.792 93.8585 19.2572 88.5029 17.0115C83.8404 15.0564 78.8002 14.178 74.9635 10.8874C70.7184 7.24639 67.839 2.5017 65.6085 -2.6246C62.7403 -9.21658 56.5348 -16.8617 60.1977 -23.0483C63.9966 -29.4646 74.9771 -25.0986 81.2785 -29.0909C87.5143 -33.0416 88.1547 -45.574 95.5373 -45.4377Z" stroke="#BFC0F0" stroke-width="1.5"/>
<path fill-rule="evenodd" clip-rule="evenodd" d="M94.3663 -28.4825C98.1407 -28.4126 99.2957 -23.032 101.426 -19.9118C102.783 -17.9257 103.201 -15.5604 104.55 -13.5692C106.292 -10.9972 110.553 -9.70402 110.445 -6.59813C110.342 -3.59621 106.094 -2.71234 104.097 -0.470569C102.141 1.72595 101.691 5.61728 98.8597 6.40923C96.0233 7.20266 93.5151 4.39034 90.7995 3.24923C88.4354 2.25581 85.8799 1.80949 83.9345 0.137436C81.782 -1.71261 80.3221 -4.12349 79.1911 -6.72826C77.7368 -10.0778 74.5903 -13.9624 76.4476 -17.106C78.3738 -20.3662 83.9414 -18.1478 87.1364 -20.1763C90.2983 -22.1837 90.623 -28.5518 94.3663 -28.4825Z" stroke="#BFC0F0" stroke-width="1.5"/>
</g>
</g>
<defs>
<clipPath id="clip0_181_23">
<rect width="227" height="121" fill="white"/>
</clipPath>
</defs>
</svg>
