<svg width="227" height="121" viewBox="0 0 227 121" fill="none" xmlns="http://www.w3.org/2000/svg">
<g clip-path="url(#clip0_181_50)">
<rect width="227" height="121" fill="#FD8061"/>
<g opacity="0.1">
<path fill-rule="evenodd" clip-rule="evenodd" d="M31.7881 -19.4147C29.654 -23.898 29.6861 -28.7922 29.4065 -33.75C29.123 -38.7768 27.7023 -44.0645 30.1497 -48.4669C32.6722 -53.0045 37.8774 -54.9612 42.5068 -57.3152C47.7678 -59.9905 52.9316 -63.6139 58.8047 -63.0381C65.179 -62.4132 72.3088 -59.7742 75.275 -54.1028C78.2033 -48.5041 74.4347 -41.9128 73.0827 -35.7393C72.1066 -31.2821 70.595 -27.2506 68.5058 -23.1929C66.1258 -18.5703 64.3656 -13.4785 60.0937 -10.5116C55.06 -7.01545 48.7428 -3.56903 42.8979 -5.40743C37.0678 -7.24122 34.4135 -13.8993 31.7881 -19.4147Z" stroke="#FEC0A0" stroke-width="1.5"/>
<path fill-rule="evenodd" clip-rule="evenodd" d="M104.41 78.4498C94.5359 78.2458 90.2302 65.5102 82.1802 59.7912C74.6557 54.4455 64.4611 53.3233 58.7922 46.0411C52.4445 37.8869 46.6706 27.3157 49.0779 17.2682C51.4806 7.23973 63.733 3.62793 70.7626 -3.92042C77.4557 -11.1075 80.5467 -21.6649 89.365 -25.9921C98.7683 -30.6065 110.043 -31.1146 120.081 -28.1218C130.1 -25.135 137.364 -17.1324 144.548 -9.54047C152.03 -1.63248 160.782 6.12752 162.634 16.8528C164.502 27.6717 161.392 39.5342 154.497 48.0806C148.079 56.0346 135.98 55.4224 127.239 60.7223C118.83 65.8211 114.244 78.653 104.41 78.4498Z" stroke="#FEC0A0" stroke-width="1.5"/>
<path fill-rule="evenodd" clip-rule="evenodd" d="M104.765 65.9734C97.156 65.8163 93.8381 56.0106 87.6349 51.6073C81.8366 47.4914 73.9807 46.6274 69.6123 41.0205C64.7209 34.7422 60.2716 26.6029 62.1266 18.8669C63.9782 11.1455 73.4197 8.36459 78.8366 2.55275C83.9942 -2.9809 86.3761 -11.1095 93.1713 -14.4413C100.417 -17.9941 109.105 -18.3853 116.841 -16.081C124.561 -13.7813 130.159 -7.61977 135.694 -1.77438C141.46 4.31435 148.204 10.2891 149.632 18.547C151.071 26.877 148.675 36.0105 143.361 42.5908C138.416 48.7149 129.092 48.2436 122.357 52.3242C115.877 56.25 112.343 66.1299 104.765 65.9734Z" stroke="#FEC0A0" stroke-width="1.5"/>
<path fill-rule="evenodd" clip-rule="evenodd" d="M105.088 53.817C99.6848 53.7057 97.3286 46.7553 92.9234 43.6341C88.8058 40.7167 83.227 40.1043 80.1248 36.1301C76.6512 31.6799 73.4915 25.9107 74.8089 20.4273C76.1237 14.9543 82.8286 12.9832 86.6753 8.86367C90.338 4.94135 92.0295 -0.820327 96.8551 -3.18191C102.001 -5.70017 108.171 -5.97748 113.664 -4.34417C119.146 -2.71414 123.122 1.65326 127.053 5.79654C131.147 10.1123 135.937 14.3473 136.95 20.2006C137.972 26.105 136.27 32.5789 132.497 37.2431C128.985 41.584 122.364 41.2499 117.581 44.1423C112.979 46.9249 110.47 53.9279 105.088 53.817Z" stroke="#FEC0A0" stroke-width="1.5"/>
<path fill-rule="evenodd" clip-rule="evenodd" d="M105.412 41.6606C102.241 41.595 100.859 37.4999 98.274 35.661C95.858 33.9421 92.5847 33.5812 90.7646 31.2396C88.7265 28.6177 86.8726 25.2185 87.6455 21.9878C88.417 18.7631 92.351 17.6017 94.608 15.1746C96.757 12.8636 97.7495 9.46887 100.581 8.07744C103.6 6.59371 107.22 6.43033 110.443 7.39265C113.66 8.35305 115.992 10.9263 118.299 13.3675C120.701 15.9103 123.511 18.4055 124.106 21.8542C124.706 25.333 123.707 29.1473 121.493 31.8954C119.433 34.453 115.548 34.2562 112.741 35.9603C110.041 37.5999 108.569 41.7259 105.412 41.6606Z" stroke="#FEC0A0" stroke-width="1.5"/>
<path fill-rule="evenodd" clip-rule="evenodd" d="M-30.2746 124.692C-36.8653 127.687 -44.5779 129.409 -51.4242 127.049C-58.0425 124.767 -61.0008 117.424 -65.8913 112.414C-70.624 107.566 -77.053 104.306 -79.7086 98.0732C-82.6072 91.2705 -83.8154 83.3241 -81.2382 76.3959C-78.6714 69.4955 -72.4348 64.5685 -65.9494 61.0842C-60.0647 57.9226 -53.2641 57.4257 -46.5918 57.782C-40.5928 58.1022 -35.3215 60.8283 -29.7263 63.018C-23.3516 65.5129 -15.4339 65.9243 -11.4896 71.5198C-7.50097 77.178 -8.80593 84.8731 -9.46394 91.7625C-10.1012 98.4344 -11.6421 104.935 -15.222 110.6C-18.9699 116.53 -23.8872 121.79 -30.2746 124.692Z" stroke="#FEC0A0" stroke-width="1.5"/>
<path fill-rule="evenodd" clip-rule="evenodd" d="M208.995 -19.1424C217.401 -20.6477 226.515 -18.5435 233.476 -13.5984C240.316 -8.73953 242.694 -0.124211 246.376 7.41256C250.161 15.1629 257.891 22.8978 255.324 31.1319C252.693 39.5726 240.819 40.428 234.24 46.3376C228.791 51.2317 226.332 58.6382 220.215 62.6671C212.55 67.7161 204.149 72.4981 194.973 72.2005C184.684 71.8668 171.126 70.3163 166.891 60.9378C162.293 50.7556 172.674 40.0594 175.589 29.2747C177.232 23.1955 177.952 17.2201 180.288 11.3714C182.743 5.22195 185.031 -0.912824 189.569 -5.73645C195.071 -11.5845 201.089 -17.7268 208.995 -19.1424Z" stroke="#FEC0A0" stroke-width="1.5"/>
<path fill-rule="evenodd" clip-rule="evenodd" d="M209.31 -11.0524C216.224 -12.29 223.719 -10.56 229.444 -6.49447C235.069 -2.49974 237.025 4.58332 240.052 10.7797C243.166 17.1515 249.523 23.5108 247.412 30.2804C245.248 37.2199 235.483 37.9232 230.072 42.7817C225.591 46.8054 223.569 52.8946 218.538 56.207C212.233 60.3581 205.325 64.2895 197.779 64.0449C189.316 63.7705 178.166 62.4957 174.683 54.7853C170.901 46.414 179.44 37.6202 181.837 28.7536C183.188 23.7555 183.78 18.8429 185.701 14.0344C187.72 8.97865 189.602 3.93496 193.334 -0.0307691C197.859 -4.83873 202.808 -9.88861 209.31 -11.0524Z" stroke="#FEC0A0" stroke-width="1.5"/>
<path fill-rule="evenodd" clip-rule="evenodd" d="M209.692 -1.39639C214.814 -2.31405 220.366 -1.03126 224.608 1.98346C228.775 4.94565 230.224 10.1979 232.467 14.7927C234.773 19.5176 239.483 24.2332 237.919 29.253C236.315 34.3988 229.082 34.9203 225.073 38.523C221.753 41.5067 220.255 46.022 216.528 48.4782C211.858 51.5563 206.74 54.4716 201.149 54.2902C194.88 54.0868 186.62 53.1415 184.04 47.424C181.238 41.2164 187.563 34.6956 189.339 28.1208C190.341 24.4146 190.779 20.7717 192.202 17.2062C193.698 13.4572 195.092 9.71715 197.857 6.77646C201.209 3.21123 204.875 -0.533381 209.692 -1.39639Z" stroke="#FEC0A0" stroke-width="1.5"/>
<path fill-rule="evenodd" clip-rule="evenodd" d="M210.022 6.9932C213.591 6.35346 217.46 7.24774 220.415 9.34943C223.319 11.4145 224.329 15.0761 225.892 18.2793C227.499 21.5732 230.78 24.8607 229.69 28.3602C228.573 31.9476 223.533 32.3111 220.74 34.8227C218.427 36.9028 217.383 40.0506 214.786 41.7629C211.531 43.9088 207.965 45.9412 204.07 45.8147C199.702 45.6729 193.946 45.0139 192.148 41.028C190.196 36.7004 194.603 32.1545 195.841 27.5709C196.538 24.9872 196.844 22.4476 197.835 19.9618C198.878 17.3483 199.849 14.7409 201.775 12.6908C204.111 10.2054 206.666 7.59484 210.022 6.9932Z" stroke="#FEC0A0" stroke-width="1.5"/>
<path fill-rule="evenodd" clip-rule="evenodd" d="M-18.8211 52.5255C-27.1405 52.6817 -35.2679 51.4541 -42.8683 48.0691C-51.4543 44.2452 -59.8886 39.5842 -65.2327 31.8555C-71.136 23.318 -78.5846 12.1315 -74.2328 2.70908C-69.5649 -7.3977 -52.419 -3.69787 -44.984 -11.9861C-37.7717 -20.0261 -42.8564 -35.3252 -34.2538 -41.8581C-25.6957 -48.357 -12.8996 -47.5716 -2.73977 -44.0663C7.25056 -40.6195 14.8954 -32.2457 20.1579 -23.0853C24.8846 -14.8576 23.3409 -4.96362 25.082 4.36284C26.9201 14.2084 34.9915 24.2246 30.6778 33.2647C26.3553 42.3232 14.0096 43.5359 4.65228 47.1769C-2.98076 50.1471 -10.6314 52.3718 -18.8211 52.5255Z" stroke="#FEC0A0" stroke-width="1.5"/>
<path fill-rule="evenodd" clip-rule="evenodd" d="M-19.4167 41.971C-25.971 42.0941 -32.3739 41.1268 -38.3618 38.4596C-45.1261 35.4466 -51.7709 31.774 -55.9812 25.6841C-60.632 18.9571 -66.5002 10.1427 -63.0717 2.7184C-59.3942 -5.24518 -45.8861 -2.32992 -40.0286 -8.86058C-34.3465 -15.1957 -38.3524 -27.2505 -31.575 -32.398C-24.8327 -37.5189 -14.7515 -36.9 -6.74727 -34.138C1.12342 -31.4221 7.14625 -24.824 11.2922 -17.6061C15.016 -11.1232 13.7999 -3.32726 15.1716 4.02147C16.6197 11.7792 22.9786 19.6714 19.5801 26.7945C16.1747 33.9321 6.44838 34.8876 -0.923589 37.7566C-6.93714 40.0969 -12.9646 41.8499 -19.4167 41.971Z" stroke="#FEC0A0" stroke-width="1.5"/>
<path fill-rule="evenodd" clip-rule="evenodd" d="M-20.1462 29.8172C-24.6685 29.902 -29.0864 29.2354 -33.2179 27.3973C-37.8852 25.3208 -42.47 22.7898 -45.375 18.5929C-48.5839 13.9569 -52.6329 7.88234 -50.2673 2.76579C-47.7299 -2.7224 -38.4096 -0.713318 -34.368 -5.214C-30.4475 -9.57991 -33.2115 -17.8876 -28.5352 -21.4351C-23.8831 -24.9642 -16.9273 -24.5377 -11.4045 -22.6342C-5.97389 -20.7625 -1.81825 -16.2154 1.0424 -11.2411C3.61176 -6.77328 2.77263 -1.40065 3.71909 3.66382C4.71824 9.01017 9.10576 14.4492 6.76089 19.3581C4.41124 24.2771 -2.29977 24.9356 -7.38629 26.9128C-11.5355 28.5256 -15.6943 29.7337 -20.1462 29.8172Z" stroke="#FEC0A0" stroke-width="1.5"/>
<path fill-rule="evenodd" clip-rule="evenodd" d="M162.406 154.204C154.173 153.621 146.136 154.871 138.198 152.608C127.816 149.648 115.194 148.272 109.481 139.116C103.773 129.968 105.61 117.275 110.008 107.43C114.023 98.4425 125.325 95.8626 132.026 88.6496C138.39 81.7996 138.986 68.3204 148.136 66.388C157.484 64.414 163.705 76.7308 172.657 80.0695C180.655 83.0528 190.433 79.6768 197.312 84.73C204.68 90.1424 212.042 98.9785 210.705 108.019C209.306 117.475 194.853 119.261 190.915 127.972C186.948 136.745 196.009 149.677 188.923 156.197C182.267 162.322 171.431 154.843 162.406 154.204Z" stroke="#FEC0A0" stroke-width="1.5"/>
<path fill-rule="evenodd" clip-rule="evenodd" d="M161.397 143.924C155.194 143.484 149.14 144.426 143.161 142.719C135.341 140.485 125.833 139.447 121.529 132.537C117.229 125.633 118.613 116.055 121.926 108.626C124.951 101.843 133.464 99.8961 138.512 94.4528C143.306 89.2834 143.755 79.1113 150.648 77.6531C157.689 76.1634 162.375 85.4583 169.118 87.9778C175.143 90.2292 182.509 87.6814 187.691 91.4948C193.241 95.5793 198.787 102.247 197.779 109.07C196.725 116.206 185.838 117.554 182.872 124.127C179.884 130.748 186.709 140.507 181.371 145.428C176.357 150.049 168.195 144.405 161.397 143.924Z" stroke="#FEC0A0" stroke-width="1.5"/>
<path fill-rule="evenodd" clip-rule="evenodd" d="M160.231 131.763C156.414 131.493 152.688 132.072 149.009 131.022C144.196 129.65 138.345 129.011 135.697 124.764C133.051 120.52 133.903 114.633 135.941 110.066C137.803 105.897 143.042 104.7 146.148 101.354C149.098 98.1768 149.374 91.9242 153.616 91.0279C157.949 90.1122 160.833 95.8256 164.982 97.3743C168.69 98.7581 173.223 97.1921 176.412 99.5361C179.827 102.047 183.24 106.146 182.62 110.339C181.971 114.725 175.272 115.554 173.446 119.595C171.607 123.664 175.808 129.663 172.523 132.687C169.437 135.528 164.414 132.059 160.231 131.763Z" stroke="#FEC0A0" stroke-width="1.5"/>
<path fill-rule="evenodd" clip-rule="evenodd" d="M44.6391 154.751C33.7398 154.55 30.4048 139.041 24.2523 130.047C20.3359 124.321 19.1277 117.503 15.2326 111.764C10.2014 104.35 -2.10144 100.622 -1.7915 91.6695C-1.49193 83.0164 10.7738 80.4687 16.5397 74.0067C22.1892 67.6752 23.4885 56.4584 31.6636 54.1756C39.854 51.8885 47.097 59.9951 54.9385 63.2843C61.7651 66.1479 69.1446 67.4344 74.7621 72.2541C80.9776 77.5869 85.1934 84.5363 88.4592 92.0446C92.6588 101.7 101.745 112.897 96.3815 121.959C90.8194 131.356 74.7423 124.962 65.5161 130.809C56.3859 136.595 55.4482 154.951 44.6391 154.751Z" stroke="#FEC0A0" stroke-width="1.5"/>
<path fill-rule="evenodd" clip-rule="evenodd" d="M45.7186 138.756C38.2745 138.619 35.9967 128.029 31.7946 121.889C29.1198 117.98 28.2946 113.325 25.6343 109.406C22.198 104.344 13.7953 101.799 14.007 95.6869C14.2116 89.779 22.589 88.0395 26.527 83.6276C30.3856 79.3048 31.273 71.6465 36.8565 70.0879C42.4505 68.5264 47.3973 74.0612 52.753 76.3069C57.4155 78.262 62.4557 79.1404 66.2923 82.431C70.5375 86.072 73.4168 90.8167 75.6473 95.943C78.5156 102.535 84.7211 110.18 81.0582 116.367C77.2593 122.783 66.2788 118.417 59.9774 122.409C53.7416 126.36 53.1012 138.892 45.7186 138.756Z" stroke="#FEC0A0" stroke-width="1.5"/>
<path fill-rule="evenodd" clip-rule="evenodd" d="M46.8896 121.801C43.1151 121.731 41.9602 116.35 39.8296 113.23C38.4733 111.244 38.0549 108.879 36.706 106.887C34.9637 104.316 30.7031 103.022 30.8105 99.9165C30.9142 96.9145 35.1619 96.0307 37.1587 93.7889C39.1151 91.5924 39.5651 87.701 42.3961 86.9091C45.2325 86.1157 47.7408 88.928 50.4563 90.0691C52.8204 91.0625 55.376 91.5088 57.3214 93.1809C59.4738 95.0309 60.9338 97.4418 62.0647 100.047C63.5191 103.396 66.6655 107.281 64.8083 110.424C62.8821 113.685 57.3145 111.466 54.1194 113.495C50.9576 115.502 50.6329 121.87 46.8896 121.801Z" stroke="#FEC0A0" stroke-width="1.5"/>
</g>
</g>
<defs>
<clipPath id="clip0_181_50">
<rect width="227" height="121" fill="white"/>
</clipPath>
</defs>
</svg>
